<?xml version="1.0" encoding="utf-8"?>
<svg version="1.1" id="Calque_1" xmlns="http://www.w3.org/2000/svg" xmlns:xlink="http://www.w3.org/1999/xlink" x="0px" y="0px" viewBox="0 0 280 197.7" xml:space="preserve">
<style>
<![CDATA[enable-background:new 0 0 284 197.7;]]>
</style>
<style>
<![CDATA[[object Object]]]>
</style>
<g>
<path style="fill:none;fill-opacity:1;fill-rule:nonzero;stroke:#fff;stroke-width:3px" class="st0" d="M96.3,33.4c-5.8-4.5-13.1-7.1-21-7.1c-19.1,0-34.6,15.5-34.6,34.6c0,4.1,0.7,7.9,2,11.5&#xA;&#x9;&#x9;C19,81.1,2.3,100.9,2.3,123.9c0,31.1,30.2,56.3,67.5,56.3c5.8,0,11.4-0.6,16.8-1.8L96.3,33.4z"/>
<path style="fill:none;fill-opacity:1;fill-rule:nonzero;stroke:#fff;stroke-width:3px" class="st0" d="M109.1,97.1c35.4,12.7,75.7,15.3,104.9-12.2C222.4,77,229,68,234.3,57.7c0.4-0.8,0.8-1.5,1.2-2.3&#xA;&#x9;&#x9;c-0.8-5.1-2.7-9.8-5.5-13.9C218.7,17.4,194.3,0.7,166,0.7c-20.5,0-39,8.8-51.9,22.7L109.1,97.1z"/>
<path style="fill:none;fill-opacity:1;fill-rule:nonzero;stroke:#fff;stroke-width:3px" class="st0" d="M244.4,78.4c-9.5,14.4-22.2,26.8-37.2,35.1c-21.3,11.7-45,14.1-68.3,10.9c19.2,18.4,38.4,36.9,57.6,55.3&#xA;&#x9;&#x9;c2.7,0.3,5.4,0.4,8.2,0.4c37.3,0,67.5-25.2,67.5-56.3C272.3,105.2,261.3,88.6,244.4,78.4z"/>
<path style="fill:none;fill-opacity:1;fill-rule:nonzero;stroke:#fff;stroke-width:3px" class="st0" d="M107.6,120.9l-4.1,61.7c9.5,5.5,21.2,8.8,33.9,8.8c12.8,0,24.7-3.4,34.3-9&#xA;&#x9;&#x9;C150.2,161.9,128.9,141.4,107.6,120.9z"/>
</g>
</svg>
